{"title":"Dark.Places.2015.BRRiP.XViD.AC3.5.1.ReLeNTLesS","uid":12233176,"size":1451492966,"categoryP":"video","categoryS":"movies","magnet":"?xt=urn:btih:3d6151698f29750162966bea790ff76875999cf7&amp;dn=Dark.Places.2015.BRRiP.XViD.AC3.5.1.ReLeNTLesS&amp;tr=udp%3A%2F%2Ftracker.openbittorrent.com%3A80&amp;tr=udp%3A%2F%2Fopen.demonii.com%3A1337&amp;tr=udp%3A%2F%2Ftracker.coppersurfer.tk%3A6969&amp;tr=udp%3A%2F%2Fexodus.desync.com%3A6969","seeders":1,"leechers":0,"uploader":"TvTeam","files":4,"time":1439618029,"description":"------------------------------------------------------------------------\n\n &lt;a href=&quot; https://www.torrenting.com&quot; rel=&quot;nofollow&quot; target=&quot;_NEW&quot;&gt; https://www.torrenting.com&lt;/a&gt;\n\nSign up is OPEN - for time being. Come and have fun\n\n.......................................................................................................................P0STER\n[img]http://i.imgur.com/zVFxayq.png[/img]\n\niMDB: http://www.imdb.com/title/tt2402101/\n\nGeneral\nComplete name               : Dark.Places.2015.BRRiP.XViD.AC3.5.1.ReLeNTLesS.avi\nFormat                      : AVI\nFormat/Info                 : Audio Video Interleave\nFile size                   : 1.34 GiB\nDuration                    : 1h 52mn\nOverall bit rate            : 1 707 Kbps\n\nVideo\nID                          : 0\nFormat                      : MPEG-4 Visual\nFormat profile              : Advanced Simple@L5\nFormat settings, BVOP       : 1\nFormat settings, QPel       : No\nFormat settings, GMC        : No warppoints\nFormat settings, Matrix     : Default (H.263)\nMuxing mode                 : Packed bitstream\nCodec ID                    : XVID\nCodec ID/Hint               : XviD\nDuration                    : 1h 52mn\nBit rate                    : 1 508 Kbps\nWidth                       : 720 pixels\nHeight                      : 304 pixels\nDisplay aspect ratio        : 2.35:1\nFrame rate                  : 24.000 fps\nColor space                 : YUV\nChroma subsampling          : 4:2:0\nBit depth                   : 8 bits\nScan type                   : Progressive\nCompression mode            : Lossy\nBits/(Pixel*Frame)          : 0.287\nStream size                 : 1.18 GiB (88%)\nWriting library             : XviD 1.2.1 (UTC 2008-12-04)\n\nAudio\nID                          : 1\nFormat                      : AC-3\nFormat/Info                 : Audio Coding 3\nMode extension              : CM (complete main)\nFormat settings, Endianness : Big\nCodec ID                    : 2000\nDuration                    : 1h 52mn\nBit rate mode               : Constant\nBit rate                    : 192 Kbps\nChannel(s)                  : 6 channels\nChannel positions           : Front: L C R, Side: L R, LFE\nSampling rate               : 48.0 KHz\nCompression mode            : Lossy\nStream size                 : 154 MiB (11%)\nAlignment                   : Aligned on interleaves\nInterleave, duration        : 64 ms (1.54 video frames)\nInterleave, preload duratio : 192 ms\nTitle                       : dark.places.2015.ReLeNTLesS.audioAC3.5.1.English\nSample Included             : Yes\nSource                      : PSYCHD Thanks\n\nPL0T\nLibby Day was only seven years old when her family was brutally murdered in their rural Kansas farmhouse. Twenty-five years later, she agrees\nto revisit the crime and uncovers the wrenching truths that led up to that tragic night. \n\nCAST\nDirector: Gilles Paquet-Brenner\nWriters: Gillian Flynn (novel), Gilles Paquet-Brenner (screenplay)\nStars: Charlize Theron, Nicholas Hoult, Christina Hendricks\n\nSCREENS\n[img]http://i.imgur.com/V9EHrub.png[/img]\n[img]http://i.imgur.com/JlIHwjb.png[/img]\n[img]http://i.imgur.com/RTp0h94.png[/img]\n[img]http://i.imgur.com/hRbKJsp.png[/img]\n[img]http://i.imgur.com/9racLEy.png[/img]\n[img]http://i.imgur.com/KO5Htti.png[/img]\n\nTRAiLER\n\nGREETZ\n\n\nHIVE-CM8, Blackjesus, M0RPH, M00SE, MiLLENiUM,\n\nMANiX, TiTAN, Anonymous, TuX, \n\nACAB, KingStoner, FooKas, 4PlayHD, \n\nGodFather, Cld.... \n\nKeep up the good work guyz","torrent":{"xt":"urn:btih:3d6151698f29750162966bea790ff76875999cf7","amp;dn":"Dark.Places.2015.BRRiP.XViD.AC3.5.1.ReLeNTLesS","amp;tr":["udp%3A%2F%2Ftracker.openbittorrent.com%3A80","udp%3A%2F%2Fopen.demonii.com%3A1337","udp%3A%2F%2Ftracker.coppersurfer.tk%3A6969","udp%3A%2F%2Fexodus.desync.com%3A6969"],"infoHash":"3d6151698f29750162966bea790ff76875999cf7","infoHashBuffer":{"type":"Buffer","data":[61,97,81,105,143,41,117,1,98,150,107,234,121,15,247,104,117,153,156,247]},"announce":[],"urlList":[]}}